<svg width="512" height="512" viewBox="0 0 512 512" fill="none" xmlns="http://www.w3.org/2000/svg">
<path d="M256.618 330.104C274.629 330.104 289.267 344.713 289.239 362.758C289.239 380.775 274.629 395.35 256.618 395.35C238.602 395.35 223.998 380.769 223.998 362.758C223.998 344.747 238.602 330.138 256.618 330.104ZM242.868 117.095H270.397C283.316 117.095 293.716 129.093 293.716 143.998L285.535 276.145C285.535 291.05 275.107 303.048 256.618 303.048C238.13 303.048 227.73 291.05 227.73 276.145L219.55 143.998C219.555 129.099 229.955 117.095 242.868 117.095V117.095ZM256.618 52.0938C143.882 52.0938 52.4727 143.474 52.4727 256.24C52.4727 368.976 143.876 460.357 256.618 460.357C369.349 460.391 460.759 368.976 460.759 256.24C460.759 143.474 369.355 52.0938 256.618 52.0938V52.0938Z" fill="white"/>
</svg>
