<svg width="512" height="512" viewBox="0 0 512 512" fill="none" xmlns="http://www.w3.org/2000/svg">
<path d="M432 224H352C343.163 224 336 231.163 336 240V432C336 440.837 343.163 448 352 448H432C440.837 448 448 440.837 448 432V240C448 231.163 440.837 224 432 224Z" fill="white"/>
<path d="M304 224H224C215.163 224 208 231.163 208 240V432C208 440.837 215.163 448 224 448H304C312.837 448 320 440.837 320 432V240C320 231.163 312.837 224 304 224Z" fill="white"/>
<path d="M176 224H96C87.1634 224 80 231.163 80 240V432C80 440.837 87.1634 448 96 448H176C184.837 448 192 440.837 192 432V240C192 231.163 184.837 224 176 224Z" fill="white"/>
<path d="M144 144.001H368L343.04 163.041C340.328 165.002 338.3 167.764 337.239 170.938C336.179 174.112 336.141 177.538 337.13 180.735C338.119 183.932 340.086 186.739 342.753 188.759C345.421 190.78 348.655 191.914 352 192.001C355.462 192.001 358.83 190.878 361.6 188.801L425.6 140.801C427.587 139.31 429.2 137.378 430.311 135.156C431.422 132.935 432 130.485 432 128.001C431.981 125.503 431.379 123.045 430.239 120.822C429.1 118.599 427.457 116.674 425.44 115.201L361.44 67.2008C359.749 65.9507 357.827 65.0459 355.786 64.5381C353.745 64.0304 351.624 63.9296 349.544 64.2417C347.464 64.5537 345.466 65.2723 343.664 66.3566C341.861 67.4408 340.29 68.8694 339.04 70.5608C337.79 72.2523 336.885 74.1734 336.377 76.2145C335.87 78.2556 335.769 80.3767 336.081 82.4567C336.393 84.5368 337.111 86.535 338.196 88.3373C339.28 90.1396 340.709 91.7107 342.4 92.9608L368 112.001H144C139.757 112.001 135.687 113.687 132.686 116.687C129.686 119.688 128 123.757 128 128.001C128 132.244 129.686 136.314 132.686 139.315C135.687 142.315 139.757 144.001 144 144.001V144.001Z" fill="white"/>
</svg>
