<svg width="155" height="232" viewBox="0 0 155 232" fill="none" xmlns="http://www.w3.org/2000/svg">
<path d="M151.444 197.692L103.076 120.355V97.1296H117.029V80.8535H37.9686V97.1296H51.921V120.355L3.55324 197.692C1.77996 200.98 0.765625 204.739 0.765625 208.742C0.765625 221.583 11.1751 231.996 24.0197 231.996H130.981C143.822 231.996 154.235 221.587 154.235 208.742C154.235 204.739 153.221 200.98 151.444 197.692ZM40.5799 169.183L68.1971 125.024V97.126H86.8004V125.024L114.418 169.183H40.5799Z" fill="white"/>
<path d="M121.378 35.3819C121.163 34.9365 120.714 34.6529 120.22 34.6529H109.044L117.611 1.6063C117.764 1.02109 117.485 0.408949 116.946 0.138074C116.404 -0.135358 115.749 0.00722403 115.37 0.478134L83.2846 40.264C82.9741 40.649 82.9124 41.1778 83.1255 41.6243C83.3398 42.0697 83.7891 42.3533 84.2832 42.3533H95.4591L86.8924 75.3999C86.7397 75.9851 87.0181 76.5973 87.5571 76.8682C87.742 76.9605 87.9382 77.0055 88.1333 77.0055C88.5119 77.0055 88.8828 76.8387 89.133 76.5281L121.218 36.7423C121.529 36.3572 121.591 35.8284 121.378 35.3819Z" fill="white"/>
<path d="M140.621 53.3573C140.409 52.908 139.957 52.6218 139.461 52.6218H133.431L138.135 34.9852C138.29 34.4012 138.018 33.789 137.482 33.513C136.945 33.237 136.288 33.3732 135.905 33.8377L117.937 55.6559C117.621 56.0396 117.556 56.5697 117.767 57.0188C117.979 57.4681 118.431 57.7543 118.928 57.7543H124.957L120.253 75.3909C120.098 75.975 120.37 76.5871 120.907 76.8631C121.093 76.9593 121.294 77.0055 121.493 77.0055C121.868 77.0055 122.234 76.8425 122.484 76.5384L140.452 54.7204C140.767 54.3379 140.833 53.8065 140.621 53.3573Z" fill="white"/>
</svg>
