<svg width="512" height="512" viewBox="0 0 512 512" fill="none" xmlns="http://www.w3.org/2000/svg">
<g clip-path="url(#clip0_801_2)">
<path d="M436.896 74.8691C337.056 -24.9499 174.688 -24.9499 74.8477 74.8691C-24.9492 174.688 -24.9492 337.098 74.8477 436.917C124.768 486.816 190.325 511.754 255.883 511.754C321.441 511.754 386.976 486.815 436.896 436.917C536.715 337.099 536.715 174.688 436.896 74.8691ZM361.461 331.317C369.802 339.658 369.802 353.141 361.461 361.482C357.301 365.642 351.84 367.733 346.378 367.733C340.917 367.733 335.455 365.642 331.295 361.482L255.882 286.047L180.49 361.46C176.309 365.62 170.847 367.711 165.407 367.711C159.946 367.711 154.484 365.62 150.324 361.46C141.983 353.119 141.983 339.615 150.324 331.295L225.716 255.882L150.303 180.469C141.962 172.128 141.962 158.624 150.303 150.304C158.623 141.963 172.127 141.963 180.468 150.304L255.881 225.717L331.294 150.304C339.635 141.963 353.118 141.963 361.459 150.304C369.8 158.624 369.8 172.128 361.459 180.469L286.046 255.882L361.461 331.317Z" fill="white"/>
</g>
<defs>
<clipPath id="clip0_801_2">
<rect width="511.76" height="511.76" fill="white"/>
</clipPath>
</defs>
</svg>
