<svg width="512" height="512" viewBox="0 0 512 512" fill="none" xmlns="http://www.w3.org/2000/svg">
<path d="M442.182 0H69.8182C51.3013 0 33.5427 7.35582 20.4493 20.4493C7.35582 33.5427 0 51.3013 0 69.8182L0 442.182C0 460.699 7.35582 478.457 20.4493 491.551C33.5427 504.644 51.3013 512 69.8182 512H442.182C460.699 512 478.457 504.644 491.551 491.551C504.644 478.457 512 460.699 512 442.182V69.8182C512 51.3013 504.644 33.5427 491.551 20.4493C478.457 7.35582 460.699 0 442.182 0V0ZM306.182 408.873C297.978 410.444 295.185 405.498 295.185 401.396C295.185 396.276 295.389 379.375 295.389 358.342C295.389 343.593 290.182 333.964 284.596 329.251C320.175 325.382 357.585 312.087 357.585 251.695C357.822 236.016 351.936 220.863 341.178 209.455C342.778 205.469 348.189 189.469 339.578 167.825C339.578 167.825 326.196 163.607 295.942 183.942C269.742 176.882 242.141 176.882 215.942 183.942C185.338 163.578 171.927 167.825 171.927 167.825C163.2 189.527 168.727 205.527 170.385 209.455C159.602 220.827 153.693 235.966 153.92 251.636C153.92 311.855 191.273 325.382 226.647 329.309C220.846 334.869 217.251 342.339 216.524 350.342C207.36 354.356 184.175 361.309 169.978 337.28C169.978 337.28 161.542 322.153 145.484 321.076C145.484 321.076 129.862 320.873 144.349 330.618C144.349 330.618 154.88 335.476 162.153 353.6C162.153 353.6 171.549 384.175 216.058 374.72C216.058 387.811 216.233 397.702 216.233 401.455C216.233 405.207 213.324 410.473 205.324 408.989C141.847 388.276 96 329.367 96 259.898C96 173.062 167.593 102.807 256 102.807C344.407 102.807 416 173.207 416 260.044C416 329.251 370.211 388.218 306.182 408.873Z" fill="white"/>
</svg>
