<svg width="97" height="104" viewBox="0 0 97 104" fill="none" xmlns="http://www.w3.org/2000/svg">
<path d="M39 103.584V104H58V50H39V103.584Z" fill="white"/>
<path d="M60 103.584C60 103.813 60.1954 104 60.4351 104H93.5649C93.8037 104 94 103.813 94 103.584V50H60V103.584Z" fill="white"/>
<path d="M3 103.584C3 103.813 3.19629 104 3.43506 104H36.5649C36.8046 104 37 103.813 37 103.584V50H3V103.584Z" fill="white"/>
<path d="M0 47H37V29H0V47Z" fill="white"/>
<path d="M60 29V47H97V29H60Z" fill="white"/>
<path d="M70.3522 22.7398C75.2159 17.5549 75.2159 9.12115 70.3522 3.93544C67.9716 1.39506 64.8176 0 61.4403 0C58.0828 0 54.9082 1.39506 52.5475 3.93544C50.798 5.80962 49.2719 9.64176 47.9898 15.3887C46.7077 9.66209 45.1815 5.80962 43.4321 3.93544C41.0714 1.39506 37.8967 0 34.5392 0C31.1818 0 28.0079 1.39506 25.6472 3.93544C20.7843 9.12115 20.7843 17.5549 25.6472 22.7398C28.333 25.6137 35.0479 27.4464 40.4204 28.508H39.5246V47H56.4955V28.508H55.5997C60.9316 27.4464 67.6664 25.5926 70.3522 22.7398ZM28.4149 6.68489C30.0626 4.93517 32.2405 3.97774 34.5392 3.97774C36.8594 3.97774 39.0159 4.93517 40.6644 6.68489C42.9838 9.16264 44.8564 18.1797 45.792 25.3843C38.7925 24.3431 30.7144 22.4071 28.4149 19.9497C24.9755 16.3055 24.9755 10.3495 28.4149 6.68489ZM55.3151 6.68489C56.9637 4.93517 59.1408 3.97774 61.4403 3.97774C63.7597 3.97774 65.9169 4.93517 67.5647 6.68489C71.004 10.3495 71.004 16.3055 67.5647 19.9497C65.2651 22.4071 57.187 24.3431 50.1875 25.3843C51.1231 18.1797 52.9958 9.16264 55.3151 6.68489Z" fill="white"/>
</svg>
