<svg width="512" height="512" viewBox="0 0 512 512" fill="none" xmlns="http://www.w3.org/2000/svg">
<g clip-path="url(#clip0_890_289)">
<path d="M205.084 510.785C211.857 513.68 219.732 511.263 223.688 505.014L403.688 219.014C406.603 214.385 406.779 208.54 404.142 203.765C401.505 198.975 396.466 196.001 391.002 196.001H270.87L315.548 18.6917C317.35 11.5287 313.702 4.13074 306.92 1.21574C300.182 -1.68426 292.257 0.746737 288.316 6.98674L108.316 292.987C105.401 297.616 105.225 303.461 107.862 308.236C110.499 313.026 115.538 316 121.002 316H241.134L196.456 493.309C194.654 500.473 198.301 507.87 205.084 510.785V510.785Z" fill="white"/>
</g>
<defs>
<clipPath id="clip0_890_289">
<rect width="512" height="512" fill="white"/>
</clipPath>
</defs>
</svg>
