<svg width="512" height="512" viewBox="0 0 512 512" fill="none" xmlns="http://www.w3.org/2000/svg">
<rect width="512" height="512" fill="white"/>
<path d="M286.059 271H227.125V318.57H286.059C299.176 318.57 309.844 307.898 309.844 294.785C309.844 281.672 299.172 271 286.059 271Z" fill="white"/>
<path d="M268.398 241C281.512 241 292.184 230.328 292.184 217.215C292.184 204.102 281.512 193.43 268.398 193.43H227.125V241H268.398Z" fill="white"/>
<path d="M475.887 411.934V358.66H413.504C432.094 328.836 442.852 293.652 442.852 256C442.852 200.18 419.227 149.781 381.461 114.25V58.2969H404.734C410.852 74.7969 426.746 86.5898 445.348 86.5898C469.223 86.5898 488.645 67.168 488.645 43.2969C488.645 19.4219 469.223 0 445.348 0C426.746 0 410.852 11.793 404.734 28.2969H351.461V91.0625C321.508 72.2383 286.098 61.332 248.184 61.332C200.477 61.332 156.734 78.5938 122.844 107.184H67.3242V83.9062C83.8242 77.793 95.6172 61.8945 95.6172 43.293C95.6172 19.4219 76.1953 0 52.3242 0C28.4492 0 9.02734 19.4219 9.02734 43.2969C9.02734 61.8984 20.8203 77.793 37.3242 83.9062V137.184H94.0977C68.6719 170.078 53.5156 211.301 53.5156 256C53.5156 311.957 77.2578 362.465 115.184 398.008V453.703H91.9062C85.793 437.203 69.8984 425.41 51.2969 425.41C27.4219 425.41 8 444.832 8 468.703C8 492.578 27.4219 512 51.2969 512C69.8984 512 85.793 500.207 91.9102 483.703H145.184V421.109C175.078 439.828 210.387 450.664 248.184 450.664C304.305 450.664 354.949 426.785 390.508 388.66H445.891V411.934C429.387 418.051 417.594 433.945 417.594 452.547C417.594 476.422 437.016 495.844 460.891 495.844C484.762 495.844 504.184 476.422 504.184 452.547C504.184 433.945 492.391 418.051 475.887 411.934ZM286.059 348.57H284.785V381.293H254.785V348.57H238.336V381.293H208.336V348.57H171.523V318.57H197.125V193.43H171.523V163.43H208.336V130.707H238.336V163.43H254.785V130.707H284.785V165.992C306.453 172.941 322.184 193.273 322.184 217.215C322.184 228.645 318.59 239.246 312.484 247.969C328.801 257.215 339.844 274.73 339.844 294.785C339.844 324.441 315.715 348.57 286.059 348.57Z" fill="white"/>
</svg>
