<svg width="478" height="478" viewBox="0 0 478 478" fill="none" xmlns="http://www.w3.org/2000/svg">
<g clip-path="url(#clip0_760_112)">
<path d="M474.609 228.9C445.603 190.898 410.766 157.725 371.39 130.613L438.735 63.2684C445.515 56.7204 445.703 45.9164 439.155 39.1364C432.607 32.3564 421.803 32.1684 415.023 38.7164C414.881 38.8534 414.741 38.9934 414.603 39.1364L341.029 112.642C309.712 95.4064 274.676 86.0354 238.936 85.3354C109.229 85.3354 7.52875 223.029 3.26175 228.899C-1.08725 234.882 -1.08725 242.986 3.26175 248.969C32.2678 286.971 67.1048 320.144 106.481 347.256L39.1357 414.601C32.3557 421.149 32.1677 431.953 38.7157 438.733C45.2637 445.513 56.0677 445.701 62.8477 439.153C62.9897 439.016 63.1297 438.876 63.2677 438.733L136.842 365.227C168.159 382.463 203.195 391.834 238.935 392.534C368.642 392.534 470.342 254.84 474.609 248.969C478.959 242.987 478.959 234.883 474.609 228.9ZM131.296 322.493C96.5288 299.337 65.3647 271.182 38.8117 238.935C63.9337 208.505 145.41 119.468 238.936 119.468C265.545 120.006 291.706 126.417 315.548 138.241L285.92 167.869C246.72 141.844 193.844 152.524 167.819 191.724C148.861 220.279 148.861 257.415 167.819 285.97L131.296 322.493ZM285.016 217.004C288.356 223.834 290.107 231.332 290.136 238.935C290.136 267.212 267.213 290.135 238.936 290.135C231.333 290.106 223.835 288.355 217.005 285.015L285.016 217.004ZM192.856 260.865C189.516 254.035 187.765 246.537 187.736 238.934C187.736 210.657 210.659 187.734 238.936 187.734C246.539 187.763 254.037 189.514 260.867 192.854L192.856 260.865ZM238.936 358.401C212.327 357.863 186.167 351.452 162.324 339.628L191.952 310C231.152 336.025 284.028 325.345 310.053 286.145C329.011 257.59 329.011 220.454 310.053 191.899L346.576 155.376C381.343 178.532 412.507 206.688 439.06 238.934C413.937 269.365 332.461 358.401 238.936 358.401Z" fill="white"/>
</g>
<defs>
<clipPath id="clip0_760_112">
<rect width="477.871" height="477.871" fill="white"/>
</clipPath>
</defs>
</svg>
