<svg width="439" height="439" viewBox="0 0 439 439" fill="none" xmlns="http://www.w3.org/2000/svg">
<g clip-path="url(#clip0_819_8)">
<path d="M414.411 24.123C398.334 8.042 378.964 0 356.316 0H82.2289C59.5809 0 40.2109 8.042 24.1269 24.123C8.04591 40.207 0.00390625 59.576 0.00390625 82.225V356.309C0.00390625 378.956 8.04591 398.327 24.1269 414.411C40.2109 430.495 59.5809 438.537 82.2289 438.537H356.313C378.961 438.537 398.331 430.495 414.408 414.411C430.492 398.327 438.534 378.957 438.534 356.309V82.225C438.533 59.576 430.491 40.204 414.411 24.123ZM335.472 168.735C335.663 170.448 335.76 173.013 335.76 176.445C335.76 192.434 333.426 208.47 328.765 224.549C324.104 240.636 316.965 256.053 307.349 270.803C297.743 285.552 286.275 298.594 272.953 309.918C259.628 321.238 243.642 330.283 224.985 337.035C206.337 343.797 186.348 347.178 165.032 347.178C131.916 347.178 101.272 338.226 73.1009 320.342C77.6689 320.91 82.4299 321.197 87.3759 321.197C114.976 321.197 139.815 312.632 161.895 295.497C148.954 295.312 137.389 291.318 127.207 283.506C117.022 275.703 109.934 265.807 105.936 253.815C110.883 254.575 114.594 254.952 117.068 254.952C121.255 254.952 126.11 254.192 131.628 252.673C117.734 250.004 106.03 243.111 96.5129 231.976C86.9939 220.84 82.2359 208.136 82.2359 193.862V193.291C92.3209 198.046 101.838 200.52 110.785 200.713C93.4639 189.1 84.8039 172.448 84.8039 150.75C84.8039 140.09 87.5619 130.003 93.0819 120.486C108.117 138.95 126.393 153.699 147.898 164.738C169.405 175.776 192.438 181.965 216.99 183.296C216.04 179.68 215.563 175.11 215.563 169.592C215.563 153.03 221.416 138.9 233.123 127.193C244.826 115.487 258.96 109.632 275.517 109.632C293.032 109.632 307.596 115.915 319.205 128.478C332.339 126.004 345.097 121.148 357.465 113.918C352.708 128.57 343.852 139.706 330.915 147.32C343.283 145.604 354.795 142.37 365.452 137.612C357.459 149.793 347.463 160.166 335.472 168.735Z" fill="white"/>
</g>
<defs>
<clipPath id="clip0_819_8">
<rect width="438.536" height="438.536" fill="white"/>
</clipPath>
</defs>
</svg>
