<svg width="507" height="518" viewBox="0 0 507 518" fill="none" xmlns="http://www.w3.org/2000/svg">
<path d="M30.0039 256.002C30.0039 178.123 77.8949 112.396 144.283 84.9537H144.293L165.593 46.6937C71.5799 68.6877 0.00390625 153.353 0.00390625 256.002C0.00390625 352.595 63.8909 435.04 152.722 461.83L154.982 431.05C81.1319 405.764 30.0039 335.924 30.0039 256.002Z" fill="white"/>
<path d="M277.281 50.1737L275.021 80.9537C348.871 106.24 400 176.079 400 256.002C400 333.805 352.165 399.585 285.721 427.05H285.711L264.411 465.31C358.425 443.316 429.999 358.651 429.999 256.002C429.999 159.411 366.113 76.9627 277.281 50.1737Z" fill="white"/>
<path d="M357.932 220.51C355.238 215.926 350.318 213.111 345 213.111H235.243L249.702 16.1017C250.217 9.08269 245.784 2.64969 239.042 0.632689C232.3 -1.38831 225.062 1.55569 221.638 7.70469L71.8989 276.593C69.3119 281.239 69.3779 286.906 72.0719 291.491C74.7659 296.075 79.6869 298.89 85.0039 298.89H194.762L180.302 495.9C179.787 502.919 184.22 509.351 190.963 511.368C197.76 513.404 204.973 510.392 208.367 504.296L358.105 235.409C360.692 230.763 360.626 225.095 357.932 220.51Z" fill="white"/>
<path d="M411.158 327.001C358.632 327.001 316.002 369.631 316.002 422.157C316.002 474.683 358.632 517.313 411.158 517.313C463.684 517.313 506.314 474.683 506.314 422.157C506.314 369.631 463.684 327.001 411.158 327.001ZM411.158 479.251C404.18 479.251 398.471 473.541 398.471 466.563C398.471 459.585 404.18 453.876 411.158 453.876C418.136 453.876 423.846 459.585 423.846 466.563C423.846 473.541 418.136 479.251 411.158 479.251ZM425.685 380.859L421.435 431.736C420.991 437.065 416.55 441.188 411.158 441.188C405.766 441.188 401.325 437.065 400.881 431.736L396.631 380.859C395.933 372.359 402.594 365.063 411.158 365.063C419.278 365.063 425.749 371.661 425.749 379.654C425.749 380.034 425.749 380.479 425.685 380.859Z" fill="#FEC108"/>
</svg>
