<svg width="103" height="103" viewBox="0 0 103 103" fill="none" xmlns="http://www.w3.org/2000/svg">
<path d="M37.78 25.9576C25.5744 38.5796 28.2379 59.5264 42.2191 68.8055C42.6798 69.1114 43.2927 69.0507 43.6884 68.6643C46.6318 65.7897 49.1218 63.0054 51.3021 59.4642C51.6357 58.9225 51.4282 58.2195 50.8686 57.9164C48.736 56.7616 46.614 54.5964 45.4194 52.3091L45.418 52.3099C43.987 49.4619 43.4998 46.2693 44.2574 42.9721C44.2582 42.9723 44.259 42.9725 44.2598 42.9725C45.1316 38.7512 49.6657 34.8245 53.1287 31.1929C53.1214 31.1904 53.1143 31.1878 53.107 31.1854L66.0819 17.9494C71.2526 12.6746 79.7577 12.6312 84.982 17.8529C90.2592 23.0207 90.3464 31.5645 85.1759 36.839L77.3169 44.9167C76.9532 45.2905 76.8352 45.8359 77.0054 46.329C78.8149 51.5737 79.26 58.969 78.0474 64.5563C78.0134 64.7127 78.2065 64.815 78.3184 64.7007L95.0449 47.6375C105.73 36.7373 105.639 18.9902 94.8435 8.19965C83.8259 -2.81243 65.8896 -2.72079 54.9851 8.40297L37.847 25.886C37.8243 25.9099 37.8028 25.9341 37.78 25.9576V25.9576Z" fill="white"/>
<path d="M69.6572 70.8513C69.6569 70.8519 69.6565 70.8526 69.6563 70.8532C69.6671 70.8487 69.677 70.8444 69.6877 70.8398C73.1024 64.5887 73.7746 57.4195 72.1743 50.4306L72.167 50.4381L72.1591 50.4347C70.6395 44.21 66.4701 38.0289 60.8074 34.2232C60.3203 33.8958 59.5422 33.9337 59.086 34.3031C56.2176 36.625 53.41 39.6024 51.5574 43.402C51.2664 43.9986 51.4843 44.7151 52.0577 45.0483C54.2077 46.298 56.1494 48.1275 57.4494 50.5565L57.4515 50.5551C58.4646 52.2709 59.463 55.5267 58.8163 59.0249C58.8159 59.0249 58.8153 59.0249 58.8149 59.0249C58.2115 63.6628 53.5333 67.9171 49.8143 71.7505L49.8161 71.7523C46.9852 74.6505 39.7888 81.9951 36.9073 84.9424C31.7352 90.2271 23.1845 90.3145 17.9057 85.1366C12.6269 79.9586 12.5397 71.3982 17.7118 66.1134L25.5965 57.9957C25.9539 57.6278 26.0754 57.0931 25.9164 56.6052C24.1657 51.2274 23.686 43.9848 24.7911 38.3929C24.8219 38.237 24.6303 38.1375 24.5192 38.251L8.03918 55.0903C-2.75893 66.1238 -2.66741 84.0878 8.24286 95.0102C19.2633 105.82 37.1144 105.638 47.9121 94.6046C51.6633 90.4039 67.7207 75.5199 69.6572 70.8513V70.8513Z" fill="white"/>
</svg>
