<svg width="512" height="512" viewBox="0 0 512 512" fill="none" xmlns="http://www.w3.org/2000/svg">
<path d="M143.086 271.084V463.084C143.086 468.742 140.838 474.168 136.838 478.169C132.837 482.17 127.411 484.417 121.753 484.417H36.4193C30.7613 484.417 25.3351 482.17 21.3343 478.169C17.3335 474.168 15.0859 468.742 15.0859 463.084V271.084C15.0859 265.426 17.3335 260 21.3343 255.999C25.3351 251.998 30.7613 249.751 36.4193 249.751H121.753C127.411 249.751 132.837 251.998 136.838 255.999C140.838 260 143.086 265.426 143.086 271.084ZM292.419 15.084H207.086C201.428 15.084 196.002 17.3316 192.001 21.3324C188 25.3331 185.753 30.7594 185.753 36.4173V463.084C185.753 468.742 188 474.168 192.001 478.169C196.002 482.17 201.428 484.417 207.086 484.417H292.419C298.077 484.417 303.503 482.17 307.504 478.169C311.505 474.168 313.753 468.742 313.753 463.084V36.4173C313.753 30.7594 311.505 25.3331 307.504 21.3324C303.503 17.3316 298.077 15.084 292.419 15.084ZM463.086 121.751H377.753C372.095 121.751 366.668 123.998 362.668 127.999C358.667 132 356.419 137.426 356.419 143.084V463.084C356.419 468.742 358.667 474.168 362.668 478.169C366.668 482.17 372.095 484.417 377.753 484.417H463.086C468.744 484.417 474.17 482.17 478.171 478.169C482.172 474.168 484.419 468.742 484.419 463.084V143.084C484.419 137.426 482.172 132 478.171 127.999C474.17 123.998 468.744 121.751 463.086 121.751Z" fill="white"/>
</svg>
