<svg width="512" height="512" viewBox="0 0 512 512" fill="none" xmlns="http://www.w3.org/2000/svg">
<path d="M296.534 511.999H483.201C499.201 511.999 512.001 499.199 512.001 483.199V296.532C512.001 280.532 499.201 267.732 483.201 267.732H296.534C280.534 267.732 267.734 280.532 267.734 296.532V483.199C267.734 499.199 280.534 511.999 296.534 511.999V511.999ZM363.734 401.066C357.334 401.066 352.001 395.732 352.001 389.332C352.001 382.932 357.334 377.599 363.734 377.599H405.334V342.399H363.734C357.334 342.399 352.001 337.066 352.001 330.666C352.001 324.266 357.334 318.932 363.734 318.932H417.068C423.468 318.932 428.801 324.266 428.801 330.666V389.332V447.999C428.801 454.399 423.468 459.732 417.068 459.732H363.734C357.334 459.732 352.001 454.399 352.001 447.999C352.001 441.599 357.334 436.266 363.734 436.266H405.334V401.066H363.734Z" fill="white"/>
<path d="M378.665 215.467V28.8C378.665 12.8 365.865 0 349.865 0H162.132C146.132 0 133.332 12.8 133.332 28.8V215.467C133.332 231.467 146.132 244.267 162.132 244.267H348.799C364.799 244.267 378.665 231.467 378.665 215.467V215.467ZM293.332 192H218.665C212.265 192 206.932 186.667 206.932 180.267C206.932 173.867 212.265 168.533 218.665 168.533H244.265V94.9333L227.199 114.133C222.932 119.467 215.465 119.467 211.199 115.2C205.865 110.933 205.865 103.467 210.132 99.2L247.465 56.5333C250.665 52.2667 255.999 51.2 260.265 53.3333C264.532 55.4667 267.732 59.7333 267.732 64V168.533H293.332C299.732 168.533 305.065 173.867 305.065 180.267C305.065 186.667 299.732 192 293.332 192V192Z" fill="white"/>
<path d="M215.467 267.732H28.8C12.8 267.732 0 280.532 0 296.532V483.199C0 499.199 12.8 511.999 28.8 511.999H215.467C231.467 511.999 244.267 499.199 244.267 483.199V296.532C244.267 280.532 231.467 267.732 215.467 267.732V267.732ZM163.2 389.332C163.2 395.732 157.867 401.066 151.467 401.066H104.533V436.266H151.467C157.867 436.266 163.2 441.599 163.2 447.999C163.2 454.399 157.867 459.732 151.467 459.732H92.8C86.4 459.732 81.0667 454.399 81.0667 447.999V389.332C81.0667 382.932 86.4 377.599 92.8 377.599H139.733V342.399H92.8C86.4 342.399 81.0667 337.066 81.0667 330.666C81.0667 324.266 86.4 318.932 92.8 318.932H151.467C157.867 318.932 163.2 324.266 163.2 330.666V389.332Z" fill="white"/>
</svg>
