<svg width="439" height="489" viewBox="0 0 439 489" fill="none" xmlns="http://www.w3.org/2000/svg">
<path d="M414.407 74.1054C398.33 58.0244 378.96 49.9824 356.312 49.9824H82.225C59.577 49.9824 40.207 58.0244 24.123 74.1054C8.042 90.1894 0 109.558 0 132.207V406.291C0 428.938 8.042 448.309 24.123 464.393C40.207 480.477 59.577 488.519 82.225 488.519H356.309C378.957 488.519 398.327 480.477 414.404 464.393C430.488 448.309 438.53 428.939 438.53 406.291V132.207C438.529 109.558 430.487 90.1864 414.407 74.1054ZM335.468 218.717C335.659 220.43 335.756 222.995 335.756 226.427C335.756 242.416 333.422 258.452 328.761 274.531C324.1 290.618 316.961 306.035 307.345 320.785C297.739 335.534 286.271 348.576 272.949 359.9C259.624 371.22 243.638 380.265 224.981 387.017C206.333 393.779 186.344 397.16 165.028 397.16C131.912 397.16 101.268 388.208 73.097 370.324C77.665 370.892 82.426 371.179 87.372 371.179C114.972 371.179 139.811 362.614 161.891 345.479C148.95 345.294 137.385 341.3 127.203 333.488C117.018 325.685 109.93 315.789 105.932 303.797C110.879 304.557 114.59 304.934 117.064 304.934C121.251 304.934 126.106 304.174 131.624 302.655C117.73 299.986 106.026 293.093 96.509 281.958C86.99 270.822 82.232 258.118 82.232 243.844V243.273C92.317 248.028 101.834 250.502 110.781 250.695C93.46 239.082 84.8 222.43 84.8 200.732C84.8 190.072 87.558 179.985 93.078 170.468C108.113 188.932 126.389 203.681 147.894 214.72C169.401 225.758 192.434 231.947 216.986 233.278C216.036 229.662 215.559 225.092 215.559 219.574C215.559 203.012 221.412 188.882 233.119 177.175C244.822 165.469 258.956 159.614 275.513 159.614C293.028 159.614 307.592 165.897 319.201 178.46C332.335 175.986 345.093 171.13 357.461 163.9C352.704 178.552 343.848 189.688 330.911 197.302C343.279 195.586 354.791 192.352 365.448 187.594C357.455 199.775 347.459 210.148 335.468 218.717Z" fill="white"/>
<rect x="38.9961" y="85.9824" width="364" height="370" fill="white"/>
<line y1="131.982" x2="439" y2="131.982" stroke="black" stroke-width="30"/>
<rect x="77" width="31" height="101" rx="15.5" fill="white"/>
<rect x="334" width="31" height="101" rx="15.5" fill="white"/>
<rect x="188" y="261" width="67" height="36" rx="18" fill="black"/>
</svg>
