<svg width="110" height="112" viewBox="0 0 110 112" fill="none" xmlns="http://www.w3.org/2000/svg">
<path d="M85.5 47L75 47L75 52L85.5 52C87.4314 52 89 50.8796 89 49.5C89 48.1204 87.4314 47 85.5 47Z" fill="white"/>
<path d="M85.5 61L75 61L75 68L85.5 68C87.4314 68 89 66.4314 89 64.5C89 62.5686 87.4314 61 85.5 61Z" fill="white"/>
<path d="M110 56.1096C110 37.9446 95.5083 23 77.8937 23C60.2799 23 46 37.9446 46 56.1096C46 74.2747 60.2799 89 77.8937 89C95.5083 89 110 74.2747 110 56.1096ZM93.8405 62.6877C93.8405 68.1283 89.549 72.5548 84.2724 72.5548H81.0831V75.8439C81.0831 77.6614 79.657 79.1329 77.8937 79.1329C76.1312 79.1329 74.7043 77.6614 74.7043 75.8439V72.5548L65.1362 72.5548C63.3738 72.5548 61.9468 71.0833 61.9468 69.2658C61.9468 67.4474 63.3738 65.9767 65.1362 65.9767H68.3256L68.3256 46.2425L65.1362 46.2425C63.3738 46.2425 61.9468 44.7719 61.9468 42.9535C61.9468 41.136 63.3738 39.6645 65.1362 39.6645L74.7043 39.6645V36.3754C74.7043 34.5579 76.1312 33.0864 77.8937 33.0864C79.657 33.0864 81.0831 34.5579 81.0831 36.3754V39.6645L84.2724 39.6645C89.549 39.6645 93.8405 44.0909 93.8405 49.5316C93.8405 52.0677 92.8821 54.3598 91.3522 56.1096C92.8821 57.8595 93.8405 60.1516 93.8405 62.6877Z" fill="white"/>
<path d="M26.1078 20.3056L26.1078 23.6518C26.1078 24.812 26.6893 25.8876 27.6443 26.4995C28.5984 27.1105 29.7901 27.1654 30.7923 26.6459L50.3546 16.6055C52.5485 15.468 52.5485 11.7548 50.3546 10.6173L30.7923 0.353709C29.7901 -0.16579 28.5984 -0.110005 27.6443 0.501016C26.6893 1.11204 26.1078 2.18764 26.1078 3.3478L26.1078 6.91717L3.2365 6.91717C1.448 6.91717 -3.67816e-07 8.41465 -4.48666e-07 10.2643L-7.41279e-07 16.9585C-8.22167e-07 18.809 1.448 20.3056 3.2365 20.3056L26.1078 20.3056Z" fill="white"/>
<path d="M-4.91746e-07 52.2498L-8.19582e-07 59.7498C-9.10206e-07 61.8231 1.40892 63.4999 3.14915 63.4999L12.8066 63.4999L12.8066 67.2489C12.8066 68.5487 13.3724 69.7538 14.3016 70.4383C15.2299 71.1239 16.3895 71.1854 17.3646 70.6034L36.399 59.3543C38.5337 58.0799 38.5337 53.9198 36.399 52.6453L17.3646 41.3963C16.3895 40.8143 15.2299 40.8768 14.3016 41.5613C13.3724 42.2459 12.8066 43.451 12.8066 44.7508L12.8066 48.4998L3.14915 48.4998C1.40892 48.4998 -4.01164e-07 50.1776 -4.91746e-07 52.2498Z" fill="white"/>
<path d="M26.1078 105.25L26.1078 108.624C26.1078 109.794 26.6893 110.878 27.6443 111.495C28.5984 112.112 29.7901 112.167 30.7923 111.643L50.3546 101.519C52.5485 100.372 52.5485 96.6278 50.3546 95.4808L30.7923 85.3567C29.7901 84.8328 28.5984 84.8891 27.6443 85.5052C26.6893 86.1213 26.1078 87.2059 26.1078 88.3757L26.1078 91.7498L3.2365 91.7498C1.448 91.7498 -3.61047e-07 93.2598 -4.42571e-07 95.1248L-7.37624e-07 101.875C-8.19186e-07 103.741 1.448 105.25 3.2365 105.25L26.1078 105.25Z" fill="white"/>
</svg>
