<svg width="68" height="114" viewBox="0 0 68 114" fill="none" xmlns="http://www.w3.org/2000/svg">
<path d="M22.4952 113.729C24.0033 114.374 25.7567 113.836 26.6375 112.444L66.7156 48.7648C67.3647 47.7341 67.4039 46.4327 66.8167 45.3695C66.2296 44.303 65.1076 43.6408 63.891 43.6408H37.1429L47.0907 4.16183C47.4919 2.56695 46.6797 0.919734 45.1696 0.270691C43.6694 -0.375012 41.9048 0.166266 41.0273 1.55564L0.949199 65.2353C0.300156 66.266 0.260968 67.5674 0.848113 68.6306C1.43526 69.6972 2.55722 70.3593 3.77382 70.3593H30.522L20.5741 109.838C20.1729 111.433 20.9849 113.08 22.4952 113.729Z" fill="white"/>
</svg>
