<svg width="439" height="489" viewBox="0 0 439 489" fill="none" xmlns="http://www.w3.org/2000/svg">
<path d="M414.407 74.123C398.33 58.042 378.96 50 356.312 50H82.225C59.577 50 40.207 58.042 24.123 74.123C8.042 90.207 0 109.576 0 132.225V406.309C0 428.956 8.042 448.327 24.123 464.411C40.207 480.495 59.577 488.537 82.225 488.537H356.309C378.957 488.537 398.327 480.495 414.404 464.411C430.488 448.327 438.53 428.957 438.53 406.309V132.225C438.529 109.576 430.487 90.204 414.407 74.123ZM335.468 218.735C335.659 220.448 335.756 223.013 335.756 226.445C335.756 242.434 333.422 258.47 328.761 274.549C324.1 290.636 316.961 306.053 307.345 320.803C297.739 335.552 286.271 348.594 272.949 359.918C259.624 371.238 243.638 380.283 224.981 387.035C206.333 393.797 186.344 397.178 165.028 397.178C131.912 397.178 101.268 388.226 73.097 370.342C77.665 370.91 82.426 371.197 87.372 371.197C114.972 371.197 139.811 362.632 161.891 345.497C148.95 345.312 137.385 341.318 127.203 333.506C117.018 325.703 109.93 315.807 105.932 303.815C110.879 304.575 114.59 304.952 117.064 304.952C121.251 304.952 126.106 304.192 131.624 302.673C117.73 300.004 106.026 293.111 96.509 281.976C86.99 270.84 82.232 258.136 82.232 243.862V243.291C92.317 248.046 101.834 250.52 110.781 250.713C93.46 239.1 84.8 222.448 84.8 200.75C84.8 190.09 87.558 180.003 93.078 170.486C108.113 188.95 126.389 203.699 147.894 214.738C169.401 225.776 192.434 231.965 216.986 233.296C216.036 229.68 215.559 225.11 215.559 219.592C215.559 203.03 221.412 188.9 233.119 177.193C244.822 165.487 258.956 159.632 275.513 159.632C293.028 159.632 307.592 165.915 319.201 178.478C332.335 176.004 345.093 171.148 357.461 163.918C352.704 178.57 343.848 189.706 330.911 197.32C343.279 195.604 354.791 192.37 365.448 187.612C357.455 199.793 347.459 210.166 335.468 218.735Z" fill="white"/>
<rect x="38.9961" y="86" width="364" height="370" fill="white"/>
<line y1="132" x2="439" y2="132" stroke="black" stroke-width="30"/>
<rect x="82" y="199" width="274" height="29" rx="14.5" fill="black"/>
<rect x="82" y="307" width="274" height="29" rx="14.5" fill="black"/>
<rect x="82" y="253" width="274" height="29" rx="14.5" fill="black"/>
<rect x="82" y="361" width="274" height="29" rx="14.5" fill="black"/>
<rect x="75" width="31" height="101" rx="15.5" fill="white"/>
<rect x="332" width="31" height="101" rx="15.5" fill="white"/>
</svg>
