<svg width="512" height="512" viewBox="0 0 512 512" fill="none" xmlns="http://www.w3.org/2000/svg">
<path d="M264.786 273.067C274.057 273.067 281.598 265.525 281.598 256.254C281.598 246.475 274.057 238.934 264.786 238.934H230.398V273.067H238.932H264.786Z" fill="white"/>
<path d="M298.665 307.454C298.665 297.674 291.123 290.133 281.853 290.133H264.786H238.932H230.398V324.266H281.853C291.123 324.266 298.665 316.724 298.665 307.454Z" fill="white"/>
<path d="M51.1992 366.933C51.1992 390.485 70.3138 409.599 93.8659 409.599H418.133C441.685 409.599 460.799 390.485 460.799 366.933V170.666H51.1992V366.933ZM204.799 238.933C200.087 238.933 196.266 235.112 196.266 230.399C196.266 225.687 200.087 221.866 204.799 221.866H213.333V204.799C213.333 200.087 217.153 196.266 221.866 196.266C226.578 196.266 230.399 200.087 230.399 204.799V221.866H247.466V204.799C247.466 200.087 251.287 196.266 255.999 196.266C260.712 196.266 264.533 200.087 264.533 204.799V221.866H264.787C283.466 221.866 298.666 237.066 298.666 255.745C298.666 262.942 296.527 269.578 292.869 275.061C306.127 279.661 315.733 292.143 315.733 306.945C315.733 326.133 300.533 341.333 281.853 341.333H264.533V358.399C264.533 363.112 260.712 366.933 255.999 366.933C251.287 366.933 247.466 363.112 247.466 358.399V341.333H230.399V358.399C230.399 363.112 226.578 366.933 221.866 366.933C217.153 366.933 213.333 363.112 213.333 358.399V341.333H204.799C200.087 341.333 196.266 337.512 196.266 332.799C196.266 328.087 200.087 324.266 204.799 324.266H213.333V238.933H204.799Z" fill="white"/>
<path d="M418.133 102.4H93.8659C70.3138 102.4 51.1992 121.515 51.1992 145.067V153.6H460.799V145.067C460.799 121.515 441.685 102.4 418.133 102.4Z" fill="white"/>
</svg>
