<svg width="115" height="112" viewBox="0 0 115 112" fill="none" xmlns="http://www.w3.org/2000/svg">
<path d="M40.5 31C62.8675 31 81 24.0604 81 15.5C81 6.93959 62.8675 0 40.5 0C18.1325 0 0 6.93959 0 15.5C0 24.0604 18.1325 31 40.5 31Z" fill="white"/>
<path d="M35.2391 55C38.3964 48.0968 43.1419 42.1342 49 37.5925C46.1565 37.8423 43.294 38.0089 40.4173 38.0089C24.6736 38.0089 8.83949 34.2511 0 27V38.0089C0 46.7347 15.3681 53.9172 35.2391 55Z" fill="white"/>
<path d="M32.4296 78C32.2908 76.5807 32.2017 75.1423 32.2017 73.6848C32.2017 69.4221 32.8556 65.3124 34 61.3986C20.4555 60.395 7.68381 56.9018 0 51V61.7379C0 69.6515 13.8467 76.2605 32.4296 78Z" fill="white"/>
<path d="M76.5 36C55.2721 36 38 53.0478 38 74C38 94.9522 55.2721 112 76.5 112C97.7279 112 115 94.9522 115 74C115 53.0478 97.7279 36 76.5 36ZM83.7188 90.7343V94.3537C83.7188 96.3202 82.1017 97.9162 80.1094 97.9162C78.117 97.9162 76.5 96.325 76.5 94.3585V90.796H74.0938V94.3585C74.0938 96.325 72.4767 97.921 70.4844 97.921C68.492 97.921 66.875 96.325 66.875 94.3585V90.796H65.6719C63.6795 90.796 62.0625 89.2 62.0625 87.2335V74.171V61.1085C62.0625 59.142 63.6795 57.546 65.6719 57.546H66.875V53.9835C66.875 52.017 68.492 50.421 70.4844 50.421C72.4767 50.421 74.0938 52.017 74.0938 53.9835V57.546H76.5V53.9835C76.5 52.017 78.117 50.421 80.1094 50.421C82.1017 50.421 83.7188 52.017 83.7188 53.9835V58.0352C87.8816 59.3035 90.9375 63.094 90.9375 67.616C90.9375 69.5303 90.3696 71.2972 89.4408 72.822C91.7989 74.6698 93.3438 77.4865 93.3438 80.6785C93.3438 86.0793 89.0703 90.435 83.7188 90.7343Z" fill="white"/>
<path d="M84.6343 78H81.92H69V86H84.6343C86.4909 86 88 84.2208 88 82.032C88 79.7792 86.4909 78 84.6343 78Z" fill="white"/>
<path d="M84 67.024C84 65.3344 82.61 64 80.9 64H69V70H80.9C82.61 70 84 68.6608 84 67.024Z" fill="white"/>
</svg>
