<svg width="512" height="512" viewBox="0 0 512 512" fill="none" xmlns="http://www.w3.org/2000/svg">
<g clip-path="url(#clip0_833_172)">
<path d="M180.944 222.934V213.324H0.0078125V222.934C0.0078125 272.818 40.5919 313.402 90.4757 313.402C140.36 313.401 180.944 272.817 180.944 222.934V222.934Z" fill="white"/>
<path d="M331.059 213.324V222.934C331.059 272.818 371.643 313.402 421.527 313.402C471.411 313.402 511.995 272.818 511.995 222.934V213.324H331.059Z" fill="white"/>
<path d="M90.473 126.095L111 183.325H142.871L111.788 96.6677H225.976V361.908H286.022V96.6677H400.21L369.126 183.325H400.997L421.524 126.095L442.052 183.325H473.923L432.081 66.6684H286.022V30.0233C286.022 13.4417 272.581 0 255.999 0C239.417 0 225.976 13.4417 225.976 30.0233V66.6684H79.9172L38.0742 183.325H69.9455L90.473 126.095Z" fill="white"/>
<path d="M80.875 466.953H431.123V512H80.875V466.953Z" fill="white"/>
<path d="M110.898 391.906H401.099V436.953H110.898V391.906Z" fill="white"/>
</g>
<defs>
<clipPath id="clip0_833_172">
<rect width="512" height="512" fill="white"/>
</clipPath>
</defs>
</svg>
