<svg width="512" height="512" viewBox="0 0 512 512" fill="none" xmlns="http://www.w3.org/2000/svg">
<g clip-path="url(#clip0_893_292)">
<path d="M498.1 153.488L153.487 498.101C134.99 516.619 104.831 516.649 86.2842 498.101L13.9182 425.735C-4.63941 407.177 -4.63941 377.089 13.9182 358.532L34.5891 337.861C37.9215 334.528 43.3244 334.528 46.6579 337.861L78.2785 369.481C81.5832 372.786 87.0107 373.121 90.4124 369.918C93.9326 366.603 93.9955 361.061 90.6002 357.667L58.7267 325.793C55.3943 322.461 55.3943 317.057 58.7267 313.724L104.374 268.077C107.706 264.745 113.11 264.745 116.442 268.077L165.547 317.181C167.213 318.849 169.396 319.681 171.581 319.681C179.113 319.681 183.009 310.505 177.615 305.113L128.511 256.009C125.179 252.676 125.179 247.272 128.511 243.94L174.158 198.293C177.491 194.96 182.893 194.96 186.227 198.293L218.1 230.166C219.767 231.832 221.95 232.666 224.135 232.666C231.667 232.666 235.563 223.49 230.169 218.097L198.296 186.224C194.963 182.892 194.963 177.488 198.296 174.155L243.943 128.508C247.275 125.176 252.678 125.176 256.011 128.508L305.116 177.612C306.782 179.279 308.965 180.112 311.15 180.112C318.682 180.112 322.578 170.936 317.184 165.544L268.08 116.439C264.748 113.107 264.748 107.703 268.08 104.371L313.727 58.7238C317.06 55.3913 322.464 55.3913 325.796 58.7238L357.669 90.5972C359.336 92.2634 361.519 93.0965 363.704 93.0965C371.236 93.0965 375.132 83.9206 369.738 78.5284L337.865 46.6549C334.532 43.3225 334.532 37.9185 337.865 34.5861L358.536 13.9153C377.093 -4.64234 407.181 -4.64234 425.739 13.9153L498.105 86.2813C516.629 104.813 516.629 134.959 498.1 153.488V153.488Z" fill="white"/>
</g>
<defs>
<clipPath id="clip0_893_292">
<rect width="512" height="512" fill="white"/>
</clipPath>
</defs>
</svg>
