<svg width="512" height="512" viewBox="0 0 512 512" fill="none" xmlns="http://www.w3.org/2000/svg">
<path d="M379.333 177.897C414.733 201.057 455.653 222.297 494.589 239.265C509.285 245.665 509.285 266.321 494.589 272.729C455.653 289.705 414.725 310.953 379.325 334.113C364.693 343.689 346.341 329.025 352.285 312.577L358.277 296.001H285.117V216.001H358.285L352.293 199.433C346.341 182.985 364.693 168.321 379.333 177.897V177.897Z" fill="white"/>
<path d="M6.39062 216.002H29.1826V296.002H6.39062V216.002Z" fill="white"/>
<path d="M69.1992 216.002H123.999V296.002H69.1992V216.002Z" fill="white"/>
<path d="M165.199 216.002H245.199V297.442H165.199V216.002Z" fill="white"/>
<path d="M258.994 347.864C294.394 371.024 335.314 392.264 374.25 409.232C388.946 415.632 388.946 436.288 374.25 442.696C335.314 459.672 294.386 480.92 258.986 504.08C244.354 513.656 226.002 498.992 231.946 482.544L237.938 465.976H164.77V385.976H237.938L231.946 369.408C226.01 352.952 244.362 338.288 258.994 347.864V347.864Z" fill="white"/>
<path d="M7.25 386.688H30.042V466.688H7.25V386.688Z" fill="white"/>
<path d="M70.0664 386.688H124.866V466.688H70.0664V386.688Z" fill="white"/>
<path d="M6.49609 46.752H29.2881V126.752H6.49609V46.752Z" fill="white"/>
<path d="M69.3125 46.752H124.113V126.752H69.3125V46.752Z" fill="white"/>
<path d="M258.24 7.92821C293.64 31.0882 334.56 52.3282 373.496 69.2962C388.192 75.6962 388.192 96.3522 373.496 102.76C334.56 119.736 293.632 140.984 258.232 164.144C243.6 173.72 225.248 159.056 231.192 142.608L237.184 126.04H164.016V46.0402H237.184L231.192 29.4722C225.256 13.0162 243.608 -1.64779 258.24 7.92821V7.92821Z" fill="white"/>
</svg>
