<svg width="512" height="512" viewBox="0 0 512 512" fill="none" xmlns="http://www.w3.org/2000/svg">
<path d="M230.084 202.906C226.09 198.913 220.561 196.455 214.417 196.455H181.137V240.897H214.417C233.955 240.897 244.184 217.365 230.084 202.906Z" fill="white"/>
<path d="M181.137 262.4V314.931H220.458C244.01 314.931 255.561 286.29 238.993 270.08C228.753 259.84 219.701 262.4 181.137 262.4Z" fill="white"/>
<path d="M400.067 256.052C400.067 148.327 312.822 61.082 205.2 61.082C97.5777 61.082 10.2305 148.327 10.2305 256.052C10.2305 363.674 97.5777 450.919 205.2 450.919C312.822 450.919 400.067 363.674 400.067 256.052V256.052ZM279.133 325.172C270.429 333.978 258.243 339.405 244.829 339.405H218.614V371.866H196.291V339.405H180.214V371.866H157.891V339.405H116.931V317.184H141.814V194.919H116.931V172.596H157.891V140.135H180.214V172.596H196.291V140.135H218.614V172.596H244.419C263.67 172.596 279.235 188.16 279.235 207.412C279.235 217.037 275.344 225.741 269.098 232.09C262.851 238.234 254.25 242.125 244.829 242.228C271.658 242.228 293.366 264.039 293.366 290.868C293.366 304.282 287.939 316.468 279.133 325.172V325.172Z" fill="white"/>
<path d="M297.176 61.3167C461.395 139.049 461.415 373.002 297.176 450.744C416.165 454.584 501.771 361.799 501.771 255.979C501.771 150.405 416.451 57.4665 297.176 61.3167V61.3167Z" fill="white"/>
</svg>
