<svg width="512" height="512" viewBox="0 0 512 512" fill="none" xmlns="http://www.w3.org/2000/svg">
<g clip-path="url(#clip0_750_29)">
<path d="M71.0039 256.001C71.0039 178.122 118.895 112.395 185.283 84.9534H185.293L206.593 46.6934C112.58 68.6874 41.0039 153.352 41.0039 256.001C41.0039 352.594 104.891 435.039 193.722 461.829L195.982 431.049C122.132 405.763 71.0039 335.923 71.0039 256.001Z" fill="white"/>
<path d="M318.28 50.1738L316.02 80.9538C389.87 106.24 440.999 176.079 440.999 256.002C440.999 333.805 393.164 399.585 326.72 427.05H326.71L305.41 465.31C399.424 443.316 470.998 358.651 470.998 256.002C470.998 159.411 407.112 76.9628 318.28 50.1738Z" fill="white"/>
<path d="M398.932 220.51C396.238 215.926 391.318 213.111 386 213.111H276.243L290.702 16.1017C291.217 9.08269 286.784 2.64969 280.042 0.632689C273.3 -1.38831 266.062 1.55569 262.638 7.70469L112.899 276.593C110.312 281.239 110.378 286.906 113.072 291.491C115.766 296.075 120.687 298.89 126.004 298.89H235.762L221.302 495.9C220.787 502.919 225.22 509.351 231.963 511.368C238.76 513.404 245.973 510.392 249.367 504.296L399.105 235.409C401.692 230.763 401.626 225.095 398.932 220.51Z" fill="white"/>
</g>
<defs>
<clipPath id="clip0_750_29">
<rect width="512" height="512" fill="white"/>
</clipPath>
</defs>
</svg>
