<svg width="512" height="512" viewBox="0 0 512 512" fill="none" xmlns="http://www.w3.org/2000/svg">
<path d="M500.633 211.454L441.904 197.011C438.374 185.878 433.833 175.082 428.354 164.755C437.172 150.077 455.703 119.184 455.703 119.184C459.248 113.281 458.31 105.722 453.447 100.859L411.025 58.437C406.162 53.559 398.618 52.622 392.7 56.181L347.055 83.53C336.786 78.095 326.049 73.598 314.99 70.097L300.547 11.368C298.876 4.688 292.885 0 286 0H226C219.115 0 213.109 4.688 211.454 11.367C211.454 11.367 201.449 52.357 197.025 70.082C185.233 73.817 173.837 78.666 162.982 84.584L115.653 56.181C109.735 52.665 102.206 53.574 97.328 58.437L54.906 100.859C50.043 105.722 49.105 113.281 52.65 119.184L81.918 168.066C77.201 177.368 73.246 187.05 70.097 196.967L11.368 211.454C4.688 213.124 0 219.115 0 226V286C0 292.885 4.688 298.891 11.367 300.546L70.111 314.989C73.671 326.283 78.299 337.255 83.91 347.787L57.719 391.439C54.174 397.342 55.112 404.901 59.975 409.764L102.397 452.186C107.246 457.035 114.804 457.957 120.722 454.442C120.722 454.442 150.092 436.835 164.477 428.221C174.892 433.773 185.79 438.358 197.026 441.917L211.455 500.632C213.109 507.313 219.115 512 226 512H286C292.885 512 298.876 507.312 300.546 500.633L314.975 441.918C326.533 438.256 337.665 433.524 348.256 427.782C363.036 436.644 392.699 454.442 392.699 454.442C398.602 457.972 406.161 457.064 411.024 452.186L453.446 409.764C458.309 404.901 459.247 397.342 455.702 391.439L428.734 346.512C434.051 336.419 438.461 325.858 441.903 314.989L500.632 300.546C507.313 298.876 512 292.885 512 286V226C512 219.115 507.313 213.124 500.633 211.454ZM256 361C198.109 361 151 313.891 151 256C151 198.109 198.109 151 256 151C313.891 151 361 198.109 361 256C361 313.891 313.891 361 256 361Z" fill="white"/>
</svg>
